<?xml version="1.0" standalone="no"?>
<svg viewBox="0 0 200 200" xmlns="http://www.w3.org/2000/svg">
  <path fill="#FFE061" d="M36.2,-61.8C47.4,-56.3,57.3,-47.5,61.6,-36.7C65.8,-25.8,64.5,-12.9,67.4,1.7C70.3,16.2,77.3,32.5,74.6,46.1C71.9,59.7,59.5,70.7,45.5,76.2C31.4,81.8,15.7,82,0,81.9C-15.7,81.9,-31.3,81.6,-45,75.8C-58.7,70,-70.4,58.7,-78.5,45.2C-86.6,31.6,-91.2,15.8,-89.6,0.9C-88,-13.9,-80.2,-27.9,-71.5,-40.4C-62.7,-52.9,-53,-63.9,-40.9,-68.9C-28.8,-73.8,-14.4,-72.8,-1,-71.1C12.5,-69.5,25,-67.2,36.2,-61.8Z" transform="translate(100 100)" />
</svg>
